<?xml version="1.0" encoding="utf-8"?>
<!-- Generator: Adobe Illustrator 21.0.0, SVG Export Plug-In . SVG Version: 6.00 Build 0)  -->
<svg version="1.1" xmlns="http://www.w3.org/2000/svg" xmlns:xlink="http://www.w3.org/1999/xlink" x="0px" y="0px"
	 viewBox="0 0 288 288" style="enable-background:new 0 0 288 288;" xml:space="preserve">
<style type="text/css">
	.st0{fill:#B3B3B3;}
	.st1{fill:#FF1D25;}
	.st2{fill:#999999;}
</style>
<g id="Layer_1">
</g>
<g id="Layer_2">
	<g id="XMLID_2_">
		<g>
			<path class="st0" d="M208.1,230.7c2.5,0,4.2-0.1,5.2-0.3c-2.2-6.4-5.8-9.6-10.9-9.6c-2.9,0-4.4,1.2-4.4,3.6c0,1.5,1.1,3,3.2,4.3
				C203.3,230,205.6,230.7,208.1,230.7z M189.4,146.6c9.4,4.9,19.4,7.3,29.9,7.3c6.9,0,13.3-1.4,19.1-4.1
				c-6.8-4.2-13.6-6.3-20.4-6.3l-6.8,0.2l-2.4-0.6c0-1.2,2.9-1.8,8.6-1.8c8.3,0,16.3,2.4,24,7.3c12.7-7.5,19.1-19.1,19.1-34.7
				c0-10.8-3.6-20.5-10.7-29.3c-7.1-8.8-16.6-14-28.3-15.6l0.2-1.9c13.3,1.3,23.8,6.2,31.6,14.6c7.9,8.6,11.9,19.1,11.9,31.3
				c0,7.4-1.9,14.4-5.8,21.2c-3.9,6.8-9.1,12-15.5,15.7c4.6,3.7,8.2,8.6,11.1,14.7c2.8,6.1,4.2,12.2,4.2,18.3
				c0,13.1-3.9,24.3-11.9,33.4c-7.9,9.2-18.4,14.7-31.4,16.5c0.2,0.9,0.3,2.4,0.3,4.7c0,8.3-3,16.2-9,23.5l-1.5-0.9
				c5.7-7,8.5-14.5,8.5-22.6c0-2.1-0.1-3.6-0.3-4.7c-0.8,0.2-2.3,0.3-4.6,0.3c-3.7,0-6.8-0.8-9.4-2.4c-2.6-1.6-3.9-3.5-3.9-5.9
				c0-1.7,0.5-3.2,1.6-4.3c1.1-1.1,2.5-1.7,4.4-1.7c7,0,11.6,3.8,13.7,11.4c12.7-1.6,22.7-6.7,30.2-15.1
				c7.4-8.5,11.1-19.2,11.1-32.2c0-6-1.4-11.8-4.3-17.4c-2.9-5.6-6.8-10.4-11.8-14.1c-6.9,3-13.8,4.5-20.6,4.5
				c-11.6,0-22.3-2.8-32.2-8.3c-3.6,2.8-6.8,5.1-9.8,6.7v-1.3l8.3-6c-5.8-4.1-9-7-9.8-8.7c-0.1-0.2-0.2-0.5-0.2-0.6l0.3-0.6
				c4.9,4,8.7,6.9,11.4,8.6c0.1-0.1,0.1-0.1,0.2-0.2L189.4,146.6z"/>
			<path class="st1" d="M175.1,155.6v-1.3l-7.7,4.4l-1.4,0.1c-0.2-1.9-0.7-3.9-1.7-5.9c-1.2-2.4-4.5-6.1-9.8-10.8
				c-5.4-4.8-8.9-9-10.5-12.6c-1.6-3.6-2.4-7.2-2.4-10.7c0-5.9,2.2-11.2,6.7-16.1c4.4-4.8,7.5-7.3,9.3-7.3l1.6,0.7
				c-4.9,4.9-7.3,8.7-7.3,11.6c0,2.7,0.7,5.4,2.1,8.1c1.4,2.7,5,6.3,10.8,11c5.8,4.7,9.6,8.7,11.2,12c1.6,3.3,2.5,6.6,2.5,10
				c0,1.4-0.1,2.8-0.3,4.2c-0.2,1.1-0.4,2.1-0.7,3.1L175.1,155.6z"/>
			<polygon class="st1" points="175.1,154.2 175.1,155.6 168.1,159.3 167.4,158.6 			"/>
			<path class="st1" d="M168.1,159.3l7-3.7l2.1,0.4c-1.2,3.9-3.3,7.5-6.4,10.8c-5,5.3-8.8,8-11.4,8l-1-0.6l1.5-1.5
				c4.1-2.9,6.2-7.1,6.2-12.6c0-0.4,0-0.9-0.1-1.3l1.4-0.1L168.1,159.3z"/>
			<path class="st0" d="M189.7,88.4c1.5,0,2.3-3.4,2.3-10.1c-1.9,2.9-2.9,5.3-2.9,7L189.7,88.4z M127.1,35c-0.4,1.4-1.3,2.1-2.8,2.1
				c-0.5,0-1.3-0.2-2.3-0.7c-1,0.4-2,0.8-3,1.3l-0.6-1.3c1.1-0.5,2.2-1,3.3-1.4c0.6-1.5,1.6-2.3,2.8-2.3c0.8,0,1.4,0.2,2,0.5
				l1.3-0.3c0.4-1.6,1.4-2.4,2.9-2.4l2.1,1.5l1.3-0.3c0.4-2.5,1.6-3.7,3.6-3.7c1.8,0,3.2,1.4,4.1,4.1h1.9c0.9-1,1.7-1.5,2.4-1.5
				c1.4,0,2.3,0.7,2.6,2.1l1.3,0.3c1-0.3,1.8-0.5,2.4-0.5c0.9,0,1.7,0.6,2.6,2c10,3.3,18.6,8.6,25.9,15.9s11.6,15.5,12.8,24.4
				c2.9-2.3,6.6-4.2,10.9-5.6c4.3-1.5,8-2.2,11.1-2.2l2.6,0.5l0.1,1.2l-2.9,0.3c-8.2,0-15.4,2.8-21.6,8.3c0,5.5-0.4,9.2-1.1,11
				c-0.7,1.8-2,2.7-3.8,2.7c-1.3,0-2-1.3-2-3.7c0-3.9,1.6-7.8,4.9-11.5c-0.4-8.3-4.2-16.2-11.3-23.4c-7.1-7.3-15.8-12.7-25.9-16.3
				l-2.3,0.6c-1.3,0-2.2-0.6-2.8-1.8l-1.3-0.3c-1,0.9-1.7,1.3-2.3,1.3l-2.4-1.8h-1.9c-0.4,2.3-1.8,3.4-4.1,3.4
				c-1.9,0-3.1-1.1-3.6-3.4h-1c-0.6,1.2-1.5,1.8-2.4,1.8c-1,0-1.8-0.3-2.6-1L127.1,35z"/>
			<path class="st0" d="M69.8,232.8c1.1,1.4,2.2,2.3,3.3,2.8c1.3,0,1.9,0.6,1.9,1.9c3.9,2.5,7.8,3.8,11.7,3.8
				c5.5,0,10.4-2.1,14.5-6.4l0.8-0.6l0.6,1c0,0.7-1.6,2.1-4.8,4.4c-3.2,2.3-6.8,3.4-10.8,3.4c-4.4,0-8.8-1.3-13-3.8l-1.3,0.3
				c-1.3,0-1.9-0.9-1.9-2.6c-1.4-1.3-2.4-2.3-3.1-2.9c-1.7,0-2.6-0.8-2.6-2.4c0-0.7,0.2-1.2,0.7-1.6c-0.7-1.3-1-2.6-1-3.8
				c-1.1,0-1.6-0.7-1.6-2c0-0.9,0.4-1.5,1.3-2c0-7.9,2.5-13.8,7.4-17.8c4.9-4,8.8-6.1,11.6-6.1c0.7,0,1,0.3,1,0.9l-1.6,0.9
				c-10.9,4.2-16.4,11.6-16.4,22.1c0.6,0.3,1,1,1,1.9l-0.7,1.3c0,1.3,0.3,2.4,1,3.4c1.8,0,2.8,0.9,2.8,2.6
				C70.5,232,70.3,232.5,69.8,232.8z"/>
			<path class="st0" d="M129.4,235.6c-2.9,0-5.4,1.9-7.4,5.6c-2,3.7-3.1,8.2-3.1,13.4c0,1.2,0.2,2.5,0.7,3.9c4.3-2,7.9-4.5,10.9-7.7
				c3-3.2,4.5-6.2,4.5-8.9C135.1,237.7,133.2,235.6,129.4,235.6z M55.4,251.8c10.2,7.8,22.9,11.7,38,11.7c9.5,0,17-1.2,22.3-3.7
				c-0.2-0.8-0.3-2.1-0.3-4.2c0-5.5,1.5-10.5,4.6-15.1c3.1-4.6,6.5-6.9,10.3-6.9c1.9,0,3.5,0.7,4.8,2.1c1.3,1.4,1.9,3.3,1.9,5.7
				c0,3.4-1.6,6.8-4.9,10.3c-3.3,3.5-7.4,6.4-12.4,8.5c2.4,6.7,7,12,13.7,15.7c6.8,3.7,15.1,5.6,24.8,5.6c15.1,0,28.2-4.5,39.2-13.5
				c3.1-2.5,5.8-5.2,8-7.9l1.5,0.9c-2.4,2.9-5.2,5.7-8.4,8.4c-11.7,9.6-25.8,14.5-42.5,14.5c-9.1,0-17.4-2-25-6
				c-7.6-4-12.6-9.4-15-16.3c-5.6,2.6-14.1,3.9-25.5,3.9c-15.5,0-28.5-4.1-39.1-12.4c-10.6-8.3-15.8-18.9-15.8-31.8
				c0-11.4,3.8-21.4,11.3-30.1c7.5-8.7,18.1-15,31.6-18.9c3.2-0.9,9.6-2,19-3.4c3-0.4,5.3-0.7,6.7-0.7c11.2,0,23.3,3.1,36.6,9.3
				c1.6,0.8,3.7,1.9,6.3,3.4c11.4,6.6,19.8,14.3,25.2,22.9l3.1,4.7c2.9,6.2,4.4,12.3,4.4,18.4c0,8.1-1.9,14.8-5.7,19.9
				c-3.8,5.1-8.7,7.7-14.8,7.7c-5.2,0-7.8-1.2-7.8-3.6c0-0.6,0.3-1.3,0.9-1.9c0.6-0.7,1.2-1,1.9-1s1.6,0.7,2.8,2.1
				c1.2,1.4,2.4,2.1,3.6,2.1c5.3,0,9.5-2.3,12.6-6.8c3.1-4.5,4.6-10.7,4.6-18.5c0-6.5-1.3-12.3-3.9-17.4c-1.3-2.5-2.2-4.2-2.8-5.1
				c-5.7-8.6-14.1-16-25.2-22.3c-1.4-0.8-3.3-1.7-5.7-2.9c-12.5-6.1-24.5-9.1-36-9.1c-0.5,0-1.5,0.1-2.9,0.3
				c-1.4,0.2-2.4,0.3-3.1,0.3c-5.5,0-11.9,1.1-19.1,3.4c-26,8.2-39.1,23.9-39.1,47C40.1,233.8,45.2,244,55.4,251.8z"/>
			<path class="st0" d="M95.7,83c1,0,1.5-0.8,1.5-2.4c0-1.1-1.3-2.7-4.1-4.9c0,1.7,0.3,3.4,0.8,5C94.5,82.2,95.1,83,95.7,83z
				 M59.9,70.2c4-19.6,13.6-35.4,28.8-47.3C104,10.9,121.6,5,141.5,5c19.1,0,36,5.7,50.8,17.2c14.8,11.5,24.2,26.4,28.4,44.8
				c0.3,0,0.6,0.1,0.9,0.1l-0.2,1.9c1.1,5.2,1.6,10.3,1.6,15.3c0,24.7-11.2,45.5-33.7,62.4l-0.9-1.2c21.7-16.8,32.6-37.3,32.6-61.6
				c0-4-0.7-9.1-1.9-15.3l-0.7,0.1l-0.1-1.2c-4.6-17.5-13.8-31.3-27.8-41.6c-14-10.3-30.3-15.5-49.1-15.5
				c-20.2,0-37.3,5.4-51.5,16.1C75.8,37.1,66.7,51.6,62.5,69.8c2.6-0.9,5.8-1.3,9.6-1.3c6.9,0,13.4,1.5,19.4,4.5
				c1.2-16.8,10.2-29,27-36.6l0.6,1.3c-6.8,3.1-12.6,7.6-17.3,13.3c-5.4,6.6-8.3,14-8.7,22.4c4,2.9,6,5.8,6,8.8
				c0,2.2-0.8,3.3-2.3,3.3c-1.6,0-2.9-0.9-3.9-2.7c-1-1.8-1.5-3.7-1.5-5.9V75c-5.6-3.1-12-4.7-19-4.7c-4.1,0-7.7,0.4-10.6,1.3
				c-0.8,4.1-1.1,8.6-1.1,13.3c0,17.5,5.3,32.7,15.8,45.7c0.3,0.3,0.5,0.6,0.8,0.9l-1.2,1c-11.7-13.3-17.5-29.3-17.5-48.1
				c0-3.4,0.2-7.5,0.6-12.4l-0.5-1.6C59.1,70.4,59.5,70.3,59.9,70.2z"/>
			<path class="st0" d="M75.9,158.1c-2.3,0.4-4.3,0.7-6,0.7c-12.8,0-23.6-3.9-32.5-11.8S24,129,24,116.5c0-10.5,3.3-20.1,9.9-28.6
				c6.4-8.3,14.6-14,24.8-17.3l0.5,1.6C50,75.4,42.6,81.3,37,89.8c-5.6,8.5-8.4,17.5-8.4,27.2c0,11.9,4.3,21.6,12.8,28.9
				c8.5,7.3,18.2,11,29,11c1.6,0,3.4-0.2,5.2-0.7c9.9-2.3,15.9-4,18-4.9l3.4-1.5c-1.4-0.9-2.8-1.6-4.1-2.3
				c-4.3-2.2-9.9-7.1-16.6-14.6c-0.1-0.1-0.2-0.2-0.2-0.3l1.2-1c3.9,4.6,9.1,9.1,15.5,13.4c2,1.3,4.1,2.5,6.3,3.6
				c5.8-3.9,10.7-9.4,14.8-16.4l1.1-1.5l0.7,1c0,0.6-1.4,3-4.3,6.9c-2.9,4-6.3,7.5-10.3,10.6c4.1,1.8,10.6,4.3,19.3,7.5
				c-0.9,0-3.7-0.7-8.5-1.9c-4.8-1.3-9.1-2.7-12.8-4.2c-1.7,1-3.5,1.8-5.4,2.6C88.9,155.2,82.9,156.9,75.9,158.1z"/>
		</g>
		<g>
		</g>
	</g>
	<g id="XMLID_1_">
		<g>
			<path class="st1" d="M138.8,105.8c-7.6,5.7-11.4,11.8-11.4,18.6c0,3.6,0.7,7.4,2.2,11.3c1.5,4,5.3,9.7,11.6,17.2
				c6.3,7.5,10.3,13.7,12,18.7c1.7,5,2.6,9.8,2.6,14.5c0,7.2-3.5,14.5-10.5,22l-1.3,1.3c-3.7,3.4-7.1,6.1-10.4,8.2
				c-3.2,2.1-5.2,3.2-6,3.2l-0.6-0.6c6-5.5,9.8-10.1,11.4-13.7c0.2-0.5,0.4-1.1,0.7-1.8c1.3-4.4,1.9-7.6,1.9-9.6
				c0-3.1-0.7-6.6-2-10.3c-1.3-3.7-4.7-9.2-10.1-16.4c-5.4-7.3-8.8-13-10.2-17.3c-1.4-4.2-2.1-8.3-2.1-12.1c0-9.3,3.3-17.7,9.8-25
				c6.6-7.3,10.9-11,12.9-11l1.6,0.7L138.8,105.8z"/>
		</g>
		<g>
		</g>
	</g>
	<g>
		<g id="XMLID_3_">
			<g>
				<path class="st2" d="M195.2,193.5v8.7c-2.8,2.4-6.1,4.9-9.8,7.5c-3.7,2.6-7.7,4.9-12.1,7.1s-9,3.9-13.8,5.4
					c-4.9,1.4-9.8,2.1-14.9,2.1c-10.4,0-19.7-1.7-28.1-5.1c-8.3-3.4-15.5-8.3-21.4-14.6c-5.9-6.4-10.4-14.1-13.6-23.2
					c-3.2-9.1-4.8-19.3-4.8-30.7c0-11,1.7-21,5.2-30.2c3.5-9.1,8.3-17,14.4-23.5c6.1-6.5,13.3-11.6,21.6-15.2
					c8.3-3.6,17.2-5.4,26.9-5.4c3.4,0,7.1,0.2,11.1,0.7c4.1,0.5,8.1,1.1,12.2,1.8c4.1,0.8,7.9,1.6,11.6,2.6c3.7,1,6.9,1.9,9.7,2.9
					v32.8h-5.5l-6.6-18c-0.4-1.3-0.9-2.3-1.7-2.9c-0.8-0.6-1.6-1.2-2.6-1.8c-2.2-1.2-4.7-2.4-7.4-3.5c-2.7-1.1-5.6-2.1-8.6-2.9
					c-3-0.9-6.1-1.5-9.1-2c-3.1-0.5-6-0.7-8.8-0.7c-6.1,0-11.7,1.3-16.9,3.9c-5.2,2.6-9.6,6.4-13.3,11.6c-3.7,5.1-6.6,11.6-8.7,19.3
					c-2.1,7.7-3.1,16.7-3.1,27c0,21.5,4.6,37.6,13.7,48.4c9.1,10.8,22.2,16.2,39.2,16.2c5.6,0,10.6-0.6,15-1.8
					c4.4-1.2,8.3-2.7,11.8-4.5c3.5-1.8,6.6-3.8,9.2-5.9c2.6-2.1,5-4.1,7.2-6H195.2z"/>
			</g>
			<g>
			</g>
		</g>
	</g>
</g>
</svg>
