<?xml version="1.0" encoding="utf-8"?>
<!-- Generator: Adobe Illustrator 21.0.0, SVG Export Plug-In . SVG Version: 6.00 Build 0)  -->
<svg version="1.1" xmlns="http://www.w3.org/2000/svg" xmlns:xlink="http://www.w3.org/1999/xlink" x="0px" y="0px"
	 viewBox="0 0 281.1 281.1" style="enable-background:new 0 0 281.1 281.1;" xml:space="preserve">
<style type="text/css">
	.st0{fill:#808080;}
	.st1{fill:#660000;}
</style>
<g id="Layer_1">
</g>
<g id="Layer_2">
	<g>
		<path class="st0" d="M79.3,169.8c-26,8.2-39.1,23.9-39.1,47c0,12.6,5.1,22.8,15.3,30.6c10.2,7.8,22.9,11.7,38.1,11.7
			c9.5,0,17-1.2,22.3-3.7c-0.2-0.8-0.3-2.2-0.3-4.2c0-5.5,1.5-10.5,4.6-15.1c3.1-4.6,6.5-6.9,10.3-6.9c2,0,3.5,0.7,4.8,2.1
			c1.2,1.4,1.9,3.3,1.9,5.7c0,3.4-1.6,6.8-4.9,10.3c-3.3,3.5-7.4,6.4-12.4,8.5c2.4,6.7,7,12,13.7,15.7c6.8,3.7,15.1,5.6,24.8,5.6
			c15.1,0,28.2-4.5,39.2-13.5c11-9,16.5-19.2,16.5-30.5c0-2.1-0.1-3.6-0.3-4.7c-0.8,0.2-2.3,0.3-4.6,0.3c-3.7,0-6.8-0.8-9.4-2.4
			c-2.6-1.6-3.9-3.6-3.9-5.9c0-1.7,0.5-3.2,1.6-4.3c1.1-1.1,2.5-1.7,4.4-1.7c7,0,11.6,3.8,13.7,11.4c12.7-1.6,22.7-6.7,30.2-15.1
			c7.4-8.5,11.1-19.2,11.1-32.2c0-6-1.4-11.8-4.3-17.4c-2.9-5.6-6.8-10.4-11.8-14.1c-6.9,3-13.8,4.6-20.7,4.6
			c-11.6,0-22.3-2.8-32.2-8.3c-3.6,2.8-6.8,5.1-9.8,6.7v36.6c0,1.7-0.3,2.6-0.9,2.6l-0.9-2.6l-1.3-35.3l-7,3.7l-0.7-0.6l7.6-4.4
			l-0.3-10.6c0-1.7,0.6-2.6,1.7-2.6c1.1,0,1.7,0.9,1.7,2.6v9.3l8.3-6c-6.6-4.7-9.9-7.8-9.9-9.3l0.3-0.7c4.9,4,8.7,6.9,11.4,8.6
			c21.9-16.8,32.8-37.4,32.8-61.8c0-4-0.7-9.1-2-15.3l-3.6,0.3c-8.2,0-15.4,2.8-21.6,8.3c0,5.5-0.4,9.2-1.1,11s-2,2.7-3.7,2.7
			c-1.3,0-2-1.2-2-3.7c0-3.9,1.6-7.7,4.9-11.5c-0.4-8.3-4.2-16.2-11.3-23.4c-7.1-7.3-15.7-12.7-25.9-16.3l-2.3,0.6
			c-1.3,0-2.2-0.6-2.8-1.8l-1.3-0.3c-1,0.9-1.7,1.3-2.3,1.3l-2.4-1.8h-2c-0.4,2.3-1.8,3.4-4.1,3.4c-2,0-3.1-1.1-3.6-3.4h-1
			c-0.7,1.2-1.5,1.8-2.4,1.8s-1.8-0.3-2.6-1l-1,0.3c-0.4,1.4-1.4,2.1-2.8,2.1c-0.5,0-1.3-0.2-2.3-0.7c-8.1,3.1-14.9,8-20.2,14.6
			c-5.4,6.6-8.3,14-8.7,22.4c4,2.9,6,5.9,6,8.8c0,2.2-0.8,3.3-2.3,3.3c-1.6,0-2.9-0.9-3.9-2.7c-1-1.8-1.5-3.7-1.5-5.9v-1.9
			c-5.6-3.1-12-4.7-19-4.7c-4.1,0-7.6,0.4-10.6,1.3c-0.8,4.1-1.1,8.6-1.1,13.3c0,17.5,5.3,32.7,15.8,45.7c4,5,9.4,9.8,16.3,14.3
			c2,1.3,4.1,2.5,6.3,3.6c5.7-3.9,10.7-9.4,14.8-16.4l1.1-1.5l0.7,1c0,0.7-1.4,3-4.3,6.9c-2.9,4-6.3,7.5-10.3,10.6
			c4.1,1.8,10.6,4.3,19.4,7.5c-0.9,0-3.7-0.7-8.5-2c-4.8-1.3-9.1-2.7-12.8-4.2c-1.7,1-3.5,1.8-5.4,2.6c-4.9,2.1-10.8,3.7-17.9,5
			c-2.3,0.4-4.3,0.7-6,0.7c-12.8,0-23.6-3.9-32.5-11.8c-8.9-7.9-13.4-18-13.4-30.5c0-10.5,3.3-20.1,9.9-28.6
			c6.6-8.6,15.3-14.5,26-17.7c4-19.6,13.6-35.4,28.8-47.3c15.2-11.9,32.8-17.9,52.7-17.9c19.1,0,36,5.7,50.8,17.2
			c14.8,11.5,24.2,26.4,28.4,44.8c13.8,1.2,24.6,6.1,32.5,14.7c7.9,8.6,11.9,19.1,11.9,31.3c0,7.4-2,14.4-5.9,21.2
			c-3.9,6.8-9.1,12-15.4,15.7c4.6,3.7,8.2,8.6,11.1,14.7c2.8,6.1,4.2,12.2,4.2,18.3c0,13.1-4,24.3-11.9,33.4
			c-7.9,9.2-18.4,14.7-31.4,16.5c0.2,0.9,0.3,2.4,0.3,4.7c0,11.6-5.8,22.2-17.5,31.9c-11.6,9.6-25.8,14.5-42.5,14.5
			c-9.1,0-17.4-2-25-6c-7.6-4-12.6-9.4-14.9-16.3c-5.6,2.6-14.1,3.9-25.5,3.9c-15.5,0-28.5-4.1-39.1-12.4
			c-10.6-8.3-15.8-18.9-15.8-31.8c0-11.4,3.8-21.4,11.3-30.1c7.5-8.7,18.1-15,31.6-18.9c3.2-0.9,9.6-2,19-3.4c3-0.4,5.2-0.7,6.7-0.7
			c11.2,0,23.3,3.1,36.5,9.3c1.6,0.8,3.7,1.9,6.3,3.4c11.4,6.6,19.8,14.3,25.2,22.9l3.1,4.7c2.9,6.2,4.4,12.3,4.4,18.4
			c0,8.1-1.9,14.8-5.7,19.9c-3.8,5.1-8.7,7.7-14.8,7.7c-5.2,0-7.8-1.2-7.8-3.6c0-0.7,0.3-1.3,0.9-2c0.6-0.7,1.2-1,1.9-1
			s1.6,0.7,2.8,2.1c1.2,1.4,2.4,2.1,3.6,2.1c5.3,0,9.5-2.3,12.6-6.8c3.1-4.5,4.6-10.7,4.6-18.5c0-6.5-1.3-12.3-3.9-17.4
			c-1.3-2.5-2.2-4.2-2.8-5.1c-5.6-8.6-14.1-16-25.2-22.3c-1.4-0.8-3.3-1.7-5.7-2.9c-12.5-6.1-24.5-9.1-36-9.1
			c-0.5,0-1.5,0.1-2.9,0.3c-1.4,0.2-2.4,0.3-3.1,0.3C92.8,166.4,86.5,167.5,79.3,169.8z M76.5,128.4C64.7,115.1,58.8,99,58.8,80.1
			c0-3.4,0.2-7.5,0.7-12.4c-9.3,3.3-16.7,9.1-22.3,17.6c-5.6,8.5-8.4,17.5-8.4,27.2c0,11.9,4.3,21.6,12.8,28.9
			c8.5,7.3,18.2,11,29,11c1.6,0,3.4-0.2,5.2-0.7c9.9-2.3,15.9-4,18.1-4.9l3.4-1.5c-1.4-0.9-2.8-1.6-4.1-2.3
			C88.7,140.9,83.2,136,76.5,128.4z M218.5,63c-4.6-17.5-13.8-31.3-27.8-41.6c-14-10.3-30.4-15.4-49.1-15.4
			c-20.2,0-37.3,5.4-51.5,16.1C75.9,32.7,66.8,47.1,62.7,65.4c2.6-0.9,5.8-1.3,9.6-1.3c6.9,0,13.4,1.5,19.4,4.6
			c1.3-17.8,11.4-30.5,30.2-38.1c0.7-1.5,1.6-2.3,2.8-2.3c0.8,0,1.4,0.2,2,0.5l1.3-0.3c0.4-1.6,1.4-2.4,2.9-2.4l2.1,1.5l1.3-0.3
			c0.4-2.5,1.6-3.7,3.6-3.7c1.8,0,3.2,1.4,4.1,4.1h2c0.9-1,1.7-1.5,2.4-1.5c1.4,0,2.3,0.7,2.6,2.1l1.3,0.3c1-0.3,1.8-0.5,2.4-0.5
			c0.9,0,1.7,0.7,2.6,2c10,3.3,18.6,8.6,25.9,15.9c7.3,7.4,11.6,15.5,12.8,24.4c2.9-2.3,6.6-4.1,10.9-5.6c4.3-1.5,8-2.2,11.1-2.2
			L218.5,63z M75.2,233.1c3.9,2.5,7.8,3.7,11.7,3.7c5.5,0,10.4-2.1,14.5-6.3l0.8-0.7l0.7,1c0,0.6-1.6,2.1-4.8,4.4
			c-3.2,2.3-6.8,3.4-10.8,3.4c-4.4,0-8.8-1.3-13-3.8l-1.3,0.3c-1.3,0-2-0.9-2-2.6c-1.4-1.3-2.4-2.3-3.1-3c-1.7,0-2.6-0.8-2.6-2.5
			c0-0.7,0.2-1.2,0.7-1.6c-0.7-1.3-1-2.6-1-3.8c-1.1,0-1.6-0.7-1.6-2c0-0.9,0.4-1.5,1.3-2c0-7.9,2.5-13.8,7.4-17.9
			c4.9-4,8.8-6.1,11.6-6.1c0.7,0,1,0.3,1,0.9l-1.6,0.9c-11,4.2-16.4,11.6-16.4,22.1c0.7,0.3,1,1,1,2l-0.7,1.3c0,1.3,0.3,2.4,1,3.4
			c1.8,0,2.8,0.9,2.8,2.6c0,0.5-0.2,1-0.7,1.3c1.1,1.4,2.2,2.3,3.3,2.8C74.5,231.1,75.2,231.8,75.2,233.1z M97.3,76.1
			c0-1.1-1.4-2.7-4.1-4.9c0,1.7,0.3,3.4,0.8,5c0.5,1.6,1.1,2.4,1.8,2.4C96.8,78.6,97.3,77.8,97.3,76.1z M146.2,177.9
			c-3.7,3.4-7.1,6.1-10.3,8.2c-3.2,2.1-5.2,3.2-6,3.2l-0.7-0.7c6-5.5,9.8-10.1,11.4-13.7c0.2-0.5,0.4-1.1,0.7-1.8
			c1.3-4.5,2-7.7,2-9.6c0-3.1-0.7-6.6-2-10.3c-1.3-3.7-4.7-9.2-10.1-16.4c-5.4-7.3-8.8-13-10.2-17.3c-1.4-4.2-2.1-8.3-2.1-12.1
			c0-9.3,3.3-17.7,9.8-25c6.6-7.3,10.9-11,12.9-11l1.6,0.6l-2.3,2.1c-7.6,5.6-11.4,11.8-11.4,18.6c0,3.6,0.7,7.4,2.2,11.3
			c1.5,4,5.3,9.7,11.6,17.2c6.3,7.5,10.3,13.7,12,18.7c1.7,5,2.6,9.8,2.6,14.5c0,7.2-3.5,14.5-10.5,22L146.2,177.9z M119.7,254
			c4.3-2,7.9-4.5,10.9-7.7c3-3.2,4.5-6.2,4.5-8.9c0-4.2-1.9-6.3-5.6-6.3c-2.9,0-5.4,1.9-7.4,5.6c-2,3.7-3.1,8.2-3.1,13.4
			C119.1,251.3,119.3,252.6,119.7,254z M161.9,61.2c0,2.7,0.7,5.4,2,8.1c1.4,2.7,5,6.3,10.8,11c5.8,4.7,9.6,8.7,11.2,12
			s2.5,6.7,2.5,10c0,6.7-2.5,12.8-7.5,18.1c-5,5.3-8.8,8-11.4,8l-1-0.7l1.5-1.5c4.1-2.9,6.2-7.1,6.2-12.5c0-2.4-0.6-4.8-1.8-7.3
			c-1.2-2.4-4.5-6.1-9.9-10.8c-5.4-4.8-8.9-9-10.5-12.5s-2.4-7.2-2.4-10.8c0-5.9,2.2-11.2,6.7-16.1c4.5-4.8,7.5-7.3,9.3-7.3l1.6,0.7
			C164.3,54.5,161.9,58.4,161.9,61.2z M192.1,73.9c-2,2.9-2.9,5.3-2.9,7l0.7,3.1C191.3,84,192.1,80.6,192.1,73.9z M241.5,144.1
			c12.7-7.5,19.1-19.1,19.1-34.7c0-10.8-3.6-20.5-10.7-29.3c-7.1-8.8-16.6-14-28.3-15.6c1.1,5.2,1.6,10.3,1.6,15.3
			c0,24.7-11.2,45.5-33.7,62.4c9.4,4.9,19.4,7.3,29.9,7.3c7,0,13.3-1.4,19.1-4.1c-6.8-4.2-13.5-6.3-20.4-6.3l-6.8,0.2l-2.4-0.6
			c0-1.2,2.9-1.8,8.6-1.8C225.7,136.8,233.7,139.2,241.5,144.1z M213.4,225.9c-2.2-6.4-5.8-9.6-10.9-9.6c-2.9,0-4.4,1.2-4.4,3.6
			c0,1.5,1.1,3,3.2,4.3c2.1,1.4,4.4,2,6.9,2C210.7,226.2,212.4,226.1,213.4,225.9z"/>
		<g>
			<g>
				<path class="st1" d="M195.4,189.1v8.6c-2.8,2.4-6.1,4.9-9.8,7.5c-3.7,2.6-7.7,4.9-12.1,7.1c-4.4,2.2-9,3.9-13.8,5.4
					c-4.9,1.4-9.8,2.1-14.9,2.1c-10.4,0-19.7-1.7-28.1-5.1c-8.3-3.4-15.5-8.3-21.4-14.6c-5.9-6.3-10.4-14.1-13.6-23.2
					c-3.2-9.1-4.8-19.3-4.8-30.7c0-11,1.7-21,5.2-30.2c3.5-9.1,8.3-17,14.4-23.5c6.1-6.5,13.3-11.6,21.6-15.2
					c8.3-3.6,17.2-5.4,26.9-5.4c3.4,0,7.1,0.2,11.1,0.7c4,0.5,8.1,1.1,12.1,1.9c4,0.8,7.9,1.6,11.6,2.6c3.7,1,6.9,1.9,9.7,2.9v32.8
					H184l-6.6-18c-0.3-1.3-0.9-2.3-1.6-2.9c-0.8-0.6-1.6-1.2-2.6-1.7c-2.2-1.2-4.7-2.4-7.4-3.5c-2.7-1.1-5.6-2.1-8.6-2.9
					c-3-0.9-6.1-1.5-9.1-2c-3.1-0.5-6-0.7-8.8-0.7c-6.1,0-11.7,1.3-16.9,3.9c-5.1,2.6-9.6,6.4-13.3,11.6c-3.7,5.1-6.6,11.6-8.6,19.3
					c-2.1,7.7-3.1,16.7-3.1,27c0,21.5,4.6,37.6,13.7,48.4c9.1,10.8,22.2,16.2,39.2,16.2c5.6,0,10.6-0.6,15-1.8
					c4.4-1.2,8.3-2.7,11.8-4.5c3.5-1.8,6.6-3.8,9.2-5.9c2.6-2.1,5-4.1,7.2-6H195.4z"/>
			</g>
		</g>
	</g>
</g>
</svg>
