<?xml version="1.0" encoding="utf-8"?>
<!-- Generator: Adobe Illustrator 21.0.0, SVG Export Plug-In . SVG Version: 6.00 Build 0)  -->
<svg version="1.1" xmlns="http://www.w3.org/2000/svg" xmlns:xlink="http://www.w3.org/1999/xlink" x="0px" y="0px"
	 viewBox="0 0 720 296" style="enable-background:new 0 0 720 296;" xml:space="preserve">
<style type="text/css">
	.st0{fill:#808080;}
	.st1{fill:#660000;}
	.st2{font-family:'SitkaBanner';}
	.st3{font-size:140.3802px;}
</style>
<g id="Layer_1">
</g>
<g id="Layer_2">
	<g>
		<path class="st0" d="M210.9,155c-15.8,5-23.7,14.5-23.7,28.5c0,7.6,3.1,13.8,9.3,18.5c6.2,4.7,13.9,7.1,23.1,7.1
			c5.8,0,10.3-0.8,13.5-2.3c-0.1-0.5-0.2-1.3-0.2-2.5c0-3.3,0.9-6.4,2.8-9.2c1.9-2.8,4-4.2,6.3-4.2c1.2,0,2.2,0.4,2.9,1.3
			c0.8,0.9,1.1,2,1.1,3.4c0,2-1,4.1-3,6.3c-2,2.1-4.5,3.9-7.5,5.2c1.4,4.1,4.2,7.2,8.3,9.5c4.1,2.3,9.1,3.4,15.1,3.4
			c9.2,0,17.1-2.7,23.8-8.2c6.7-5.5,10-11.6,10-18.5c0-1.3-0.1-2.2-0.2-2.9c-0.5,0.1-1.4,0.2-2.8,0.2c-2.2,0-4.1-0.5-5.7-1.4
			c-1.6-1-2.4-2.2-2.4-3.6c0-1.1,0.3-1.9,1-2.6c0.7-0.7,1.5-1,2.7-1c4.3,0,7,2.3,8.3,6.9c7.7-1,13.8-4,18.3-9.2
			c4.5-5.1,6.8-11.6,6.8-19.5c0-3.6-0.9-7.1-2.6-10.5c-1.7-3.4-4.1-6.3-7.1-8.6c-4.2,1.8-8.4,2.8-12.5,2.8c-7,0-13.5-1.7-19.5-5
			c-2.2,1.7-4.1,3.1-5.9,4V165c0,1.1-0.2,1.6-0.5,1.6l-0.5-1.6l-0.8-21.4l-4.2,2.3l-0.4-0.4l4.6-2.7l-0.2-6.4c0-1.1,0.3-1.6,1-1.6
			s1,0.5,1,1.6v5.6l5-3.7c-4-2.8-6-4.7-6-5.6l0.2-0.4c3,2.4,5.3,4.2,6.9,5.2c13.3-10.2,19.9-22.7,19.9-37.4c0-2.4-0.4-5.5-1.2-9.3
			l-2.2,0.2c-5,0-9.4,1.7-13.1,5c0,3.4-0.2,5.6-0.7,6.7s-1.2,1.6-2.3,1.6c-0.8,0-1.2-0.8-1.2-2.3c0-2.4,1-4.7,3-7
			c-0.3-5.1-2.5-9.8-6.8-14.2c-4.3-4.4-9.5-7.7-15.7-9.9l-1.4,0.4c-0.8,0-1.3-0.4-1.7-1.1l-0.8-0.2c-0.6,0.5-1.1,0.8-1.4,0.8
			l-1.5-1.1h-1.2c-0.3,1.4-1.1,2.1-2.5,2.1c-1.2,0-1.9-0.7-2.2-2.1h-0.6c-0.4,0.7-0.9,1.1-1.5,1.1s-1.1-0.2-1.6-0.6l-0.6,0.2
			c-0.3,0.9-0.8,1.3-1.7,1.3c-0.3,0-0.8-0.1-1.4-0.4c-4.9,1.9-9,4.8-12.3,8.8c-3.3,4-5,8.5-5.3,13.6c2.4,1.8,3.6,3.5,3.6,5.3
			c0,1.3-0.5,2-1.4,2c-1,0-1.8-0.5-2.4-1.6c-0.6-1.1-0.9-2.3-0.9-3.6v-1.2c-3.4-1.9-7.3-2.8-11.5-2.8c-2.5,0-4.6,0.3-6.4,0.8
			c-0.5,2.5-0.7,5.2-0.7,8.1c0,10.6,3.2,19.8,9.6,27.7c2.4,3,5.7,5.9,9.9,8.7c1.2,0.8,2.5,1.5,3.8,2.2c3.5-2.4,6.5-5.7,9-10l0.7-0.9
			l0.4,0.6c0,0.4-0.9,1.8-2.6,4.2c-1.7,2.4-3.8,4.5-6.3,6.4c2.5,1.1,6.4,2.6,11.7,4.6c-0.5,0-2.3-0.4-5.2-1.2
			c-2.9-0.8-5.5-1.6-7.7-2.6c-1.1,0.6-2.1,1.1-3.3,1.6c-3,1.2-6.6,2.3-10.8,3.1c-1.4,0.3-2.6,0.4-3.6,0.4c-7.7,0-14.3-2.4-19.7-7.1
			c-5.4-4.8-8.1-10.9-8.1-18.5c0-6.4,2-12.2,6-17.3c4-5.2,9.3-8.8,15.8-10.7c2.4-11.9,8.3-21.5,17.5-28.7c9.2-7.2,19.9-10.8,32-10.8
			c11.6,0,21.8,3.5,30.8,10.4c9,7,14.7,16,17.2,27.1c8.3,0.7,14.9,3.7,19.7,8.9c4.8,5.2,7.2,11.5,7.2,19c0,4.5-1.2,8.8-3.5,12.9
			c-2.4,4.1-5.5,7.3-9.4,9.5c2.8,2.2,5,5.2,6.7,8.9c1.7,3.7,2.6,7.4,2.6,11.1c0,8-2.4,14.7-7.2,20.3c-4.8,5.6-11.1,8.9-19,10
			c0.1,0.5,0.2,1.5,0.2,2.9c0,7-3.5,13.5-10.6,19.3c-7.1,5.8-15.6,8.8-25.7,8.8c-5.5,0-10.6-1.2-15.2-3.6c-4.6-2.4-7.6-5.7-9.1-9.9
			c-3.4,1.6-8.6,2.4-15.5,2.4c-9.4,0-17.3-2.5-23.7-7.5s-9.6-11.4-9.6-19.3c0-6.9,2.3-13,6.8-18.2c4.6-5.3,10.9-9.1,19.1-11.4
			c2-0.5,5.8-1.2,11.5-2.1c1.8-0.3,3.2-0.4,4-0.4c6.8,0,14.1,1.9,22.1,5.6c1,0.5,2.3,1.2,3.8,2.1c6.9,4,12,8.6,15.3,13.9l1.9,2.9
			c1.8,3.7,2.7,7.5,2.7,11.1c0,4.9-1.1,9-3.4,12.1c-2.3,3.1-5.3,4.7-9,4.7c-3.2,0-4.7-0.7-4.7-2.2c0-0.4,0.2-0.8,0.5-1.2
			c0.4-0.4,0.7-0.6,1.1-0.6s1,0.4,1.7,1.3c0.7,0.9,1.4,1.3,2.2,1.3c3.2,0,5.8-1.4,7.6-4.1c1.9-2.7,2.8-6.5,2.8-11.2
			c0-4-0.8-7.5-2.4-10.6c-0.8-1.5-1.3-2.5-1.7-3.1c-3.4-5.2-8.5-9.7-15.3-13.5c-0.9-0.5-2-1.1-3.5-1.8c-7.6-3.7-14.8-5.5-21.8-5.5
			c-0.3,0-0.9,0.1-1.8,0.2c-0.9,0.1-1.5,0.2-1.9,0.2C219.1,152.9,215.2,153.6,210.9,155z M209.2,129.9c-7.2-8.1-10.7-17.8-10.7-29.3
			c0-2,0.1-4.5,0.4-7.5c-5.6,2-10.1,5.5-13.5,10.6c-3.4,5.1-5.1,10.6-5.1,16.5c0,7.2,2.6,13.1,7.7,17.5c5.2,4.5,11,6.7,17.6,6.7
			c1,0,2-0.1,3.2-0.4c6-1.4,9.6-2.4,10.9-3l2.1-0.9c-0.9-0.5-1.7-1-2.5-1.4C216.6,137.5,213.3,134.5,209.2,129.9z M295.2,90.2
			c-2.8-10.6-8.4-19-16.9-25.2c-8.5-6.2-18.4-9.4-29.8-9.4c-12.2,0-22.6,3.2-31.2,9.7c-8.6,6.5-14.1,15.3-16.6,26.3
			c1.6-0.5,3.5-0.8,5.8-0.8c4.2,0,8.1,0.9,11.7,2.8c0.8-10.8,6.9-18.5,18.3-23.1c0.4-0.9,1-1.4,1.7-1.4c0.5,0,0.9,0.1,1.2,0.3
			l0.8-0.2c0.3-1,0.9-1.5,1.8-1.5l1.3,0.9l0.8-0.2c0.3-1.5,1-2.3,2.2-2.3c1.1,0,1.9,0.8,2.5,2.5h1.2c0.5-0.6,1-0.9,1.5-0.9
			c0.9,0,1.4,0.4,1.6,1.3l0.8,0.2c0.6-0.2,1.1-0.3,1.5-0.3c0.5,0,1,0.4,1.6,1.2c6,2,11.3,5.2,15.7,9.7c4.4,4.5,7,9.4,7.7,14.8
			c1.8-1.4,4-2.5,6.6-3.4c2.6-0.9,4.9-1.3,6.7-1.3L295.2,90.2z M208.4,193.3c2.4,1.5,4.7,2.3,7.1,2.3c3.4,0,6.3-1.3,8.8-3.8l0.5-0.4
			l0.4,0.6c0,0.4-1,1.3-2.9,2.7c-1.9,1.4-4.1,2.1-6.6,2.1c-2.7,0-5.3-0.8-7.9-2.3l-0.8,0.2c-0.8,0-1.2-0.5-1.2-1.6
			c-0.9-0.8-1.5-1.4-1.9-1.8c-1.1,0-1.6-0.5-1.6-1.5c0-0.4,0.1-0.7,0.4-1c-0.4-0.8-0.6-1.6-0.6-2.3c-0.7,0-1-0.4-1-1.2
			c0-0.5,0.3-0.9,0.8-1.2c0-4.8,1.5-8.4,4.5-10.8c3-2.4,5.3-3.7,7-3.7c0.4,0,0.6,0.2,0.6,0.5l-1,0.5c-6.6,2.6-10,7-10,13.4
			c0.4,0.2,0.6,0.6,0.6,1.2l-0.4,0.8c0,0.8,0.2,1.5,0.6,2.1c1.1,0,1.7,0.5,1.7,1.6c0,0.3-0.1,0.6-0.4,0.8c0.7,0.9,1.3,1.4,2,1.7
			C208,192.1,208.4,192.5,208.4,193.3z M221.8,98.2c0-0.7-0.8-1.6-2.5-3c0,1.1,0.2,2.1,0.5,3c0.3,1,0.7,1.4,1.1,1.4
			C221.5,99.7,221.8,99.2,221.8,98.2z M251.4,159.9c-2.2,2-4.3,3.7-6.3,5c-2,1.3-3.2,1.9-3.6,1.9l-0.4-0.4c3.6-3.4,5.9-6.1,6.9-8.3
			c0.1-0.3,0.3-0.7,0.4-1.1c0.8-2.7,1.2-4.6,1.2-5.8c0-1.9-0.4-4-1.2-6.2c-0.8-2.2-2.8-5.6-6.1-10c-3.3-4.4-5.3-7.9-6.2-10.5
			c-0.9-2.6-1.3-5-1.3-7.3c0-5.7,2-10.7,6-15.1c4-4.4,6.6-6.7,7.8-6.7l1,0.4l-1.4,1.3c-4.6,3.4-6.9,7.2-6.9,11.3
			c0,2.2,0.4,4.5,1.3,6.9c0.9,2.4,3.2,5.9,7,10.4c3.8,4.5,6.2,8.3,7.3,11.4c1.1,3,1.6,6,1.6,8.8c0,4.3-2.1,8.8-6.4,13.3L251.4,159.9
			z M235.4,206c2.6-1.2,4.8-2.7,6.6-4.7c1.8-1.9,2.7-3.7,2.7-5.4c0-2.6-1.1-3.8-3.4-3.8c-1.8,0-3.3,1.1-4.5,3.4
			c-1.2,2.3-1.9,5-1.9,8.1C235,204.4,235.2,205.2,235.4,206z M260.9,89.2c0,1.6,0.4,3.3,1.2,4.9c0.8,1.6,3,3.8,6.5,6.7
			c3.5,2.8,5.8,5.3,6.8,7.3s1.5,4,1.5,6.1c0,4.1-1.5,7.7-4.5,11s-5.3,4.8-6.9,4.8l-0.6-0.4l0.9-0.9c2.5-1.8,3.7-4.3,3.7-7.6
			c0-1.4-0.4-2.9-1.1-4.4c-0.7-1.5-2.7-3.7-6-6.6c-3.3-2.9-5.4-5.4-6.4-7.6s-1.5-4.3-1.5-6.5c0-3.6,1.3-6.8,4-9.7
			c2.7-2.9,4.6-4.4,5.6-4.4l1,0.4C262.4,85.1,260.9,87.5,260.9,89.2z M279.3,96.8c-1.2,1.8-1.8,3.2-1.8,4.2l0.4,1.9
			C278.8,103,279.3,100.9,279.3,96.8z M309.2,139.4c7.7-4.5,11.6-11.5,11.6-21c0-6.5-2.2-12.4-6.5-17.8c-4.3-5.3-10-8.5-17.2-9.5
			c0.7,3.2,1,6.3,1,9.3c0,14.9-6.8,27.5-20.4,37.8c5.7,3,11.8,4.4,18.1,4.4c4.2,0,8.1-0.8,11.6-2.5c-4.1-2.5-8.2-3.8-12.4-3.8
			l-4.1,0.1l-1.5-0.4c0-0.7,1.7-1.1,5.2-1.1C299.7,135,304.5,136.5,309.2,139.4z M292.2,189c-1.3-3.9-3.5-5.8-6.6-5.8
			c-1.8,0-2.7,0.7-2.7,2.2c0,0.9,0.6,1.8,1.9,2.6c1.3,0.8,2.7,1.2,4.2,1.2C290.5,189.2,291.6,189.1,292.2,189z"/>
		<text transform="matrix(1 0 0 1 205.4995 180.4482)" class="st1 st2 st3">C</text>
	</g>
</g>
</svg>
