<?xml version="1.0" encoding="utf-8"?>
<!-- Generator: Adobe Illustrator 21.0.0, SVG Export Plug-In . SVG Version: 6.00 Build 0)  -->
<svg version="1.1" xmlns="http://www.w3.org/2000/svg" xmlns:xlink="http://www.w3.org/1999/xlink" x="0px" y="0px"
	 viewBox="0 0 799 169" style="enable-background:new 0 0 799 169;" xml:space="preserve">
<style type="text/css">
	.st0{fill:#808080;}
	.st1{fill:#660000;}
	.st2{fill:#333333;}
</style>
<g id="Layer_1">
</g>
<g id="Layer_2">
	<g>
		<path class="st0" d="M385.9,103c-15.8,5-23.7,14.5-23.7,28.5c0,7.6,3.1,13.8,9.3,18.5c6.2,4.7,13.9,7.1,23.1,7.1
			c5.8,0,10.3-0.8,13.5-2.3c-0.1-0.5-0.2-1.3-0.2-2.5c0-3.3,0.9-6.4,2.8-9.2c1.9-2.8,4-4.2,6.3-4.2c1.2,0,2.2,0.4,2.9,1.3
			c0.8,0.9,1.1,2,1.1,3.4c0,2-1,4.1-3,6.3c-2,2.1-4.5,3.9-7.5,5.2c1.4,4.1,4.2,7.2,8.3,9.5c4.1,2.3,9.1,3.4,15.1,3.4
			c9.2,0,17.1-2.7,23.8-8.2c6.7-5.5,10-11.6,10-18.5c0-1.3-0.1-2.2-0.2-2.9c-0.5,0.1-1.4,0.2-2.8,0.2c-2.2,0-4.1-0.5-5.7-1.4
			c-1.6-1-2.4-2.2-2.4-3.6c0-1.1,0.3-1.9,1-2.6c0.7-0.7,1.5-1,2.7-1c4.3,0,7,2.3,8.3,6.9c7.7-1,13.8-4,18.3-9.2
			c4.5-5.1,6.8-11.6,6.8-19.5c0-3.6-0.9-7.1-2.6-10.5c-1.7-3.4-4.1-6.3-7.1-8.6c-4.2,1.8-8.4,2.8-12.5,2.8c-7,0-13.5-1.7-19.5-5
			c-2.2,1.7-4.1,3.1-5.9,4V113c0,1.1-0.2,1.6-0.5,1.6l-0.5-1.6L444,91.7l-4.2,2.3l-0.4-0.4l4.6-2.7l-0.2-6.4c0-1.1,0.3-1.6,1-1.6
			s1,0.5,1,1.6v5.6l5-3.7c-4-2.8-6-4.7-6-5.6l0.2-0.4c3,2.4,5.3,4.2,6.9,5.2c13.3-10.2,19.9-22.7,19.9-37.4c0-2.4-0.4-5.5-1.2-9.3
			l-2.2,0.2c-5,0-9.4,1.7-13.1,5c0,3.4-0.2,5.6-0.7,6.7s-1.2,1.6-2.3,1.6c-0.8,0-1.2-0.8-1.2-2.3c0-2.4,1-4.7,3-7
			c-0.3-5.1-2.5-9.8-6.8-14.2c-4.3-4.4-9.5-7.7-15.7-9.9l-1.4,0.4c-0.8,0-1.3-0.4-1.7-1.1l-0.8-0.2c-0.6,0.5-1.1,0.8-1.4,0.8
			l-1.5-1.1h-1.2c-0.3,1.4-1.1,2.1-2.5,2.1c-1.2,0-1.9-0.7-2.2-2.1h-0.6c-0.4,0.7-0.9,1.1-1.5,1.1s-1.1-0.2-1.6-0.6l-0.6,0.2
			c-0.3,0.9-0.8,1.3-1.7,1.3c-0.3,0-0.8-0.1-1.4-0.4c-4.9,1.9-9,4.8-12.3,8.8c-3.3,4-5,8.5-5.3,13.6c2.4,1.8,3.6,3.5,3.6,5.3
			c0,1.3-0.5,2-1.4,2c-1,0-1.8-0.5-2.4-1.6c-0.6-1.1-0.9-2.3-0.9-3.6v-1.2c-3.4-1.9-7.3-2.8-11.5-2.8c-2.5,0-4.6,0.3-6.4,0.8
			c-0.5,2.5-0.7,5.2-0.7,8.1c0,10.6,3.2,19.8,9.6,27.7c2.4,3,5.7,5.9,9.9,8.7c1.2,0.8,2.5,1.5,3.8,2.2c3.5-2.4,6.5-5.7,9-10l0.7-0.9
			l0.4,0.6c0,0.4-0.9,1.8-2.6,4.2c-1.7,2.4-3.8,4.5-6.3,6.4c2.5,1.1,6.4,2.6,11.7,4.6c-0.5,0-2.3-0.4-5.2-1.2
			c-2.9-0.8-5.5-1.6-7.7-2.6c-1.1,0.6-2.1,1.1-3.3,1.6c-3,1.2-6.6,2.3-10.8,3.1c-1.4,0.3-2.6,0.4-3.6,0.4c-7.7,0-14.3-2.4-19.7-7.1
			c-5.4-4.8-8.1-10.9-8.1-18.5c0-6.4,2-12.2,6-17.3c4-5.2,9.3-8.8,15.8-10.7c2.4-11.9,8.3-21.5,17.5-28.7c9.2-7.2,19.9-10.8,32-10.8
			c11.6,0,21.8,3.5,30.8,10.4c9,7,14.7,16,17.2,27.1c8.3,0.7,14.9,3.7,19.7,8.9c4.8,5.2,7.2,11.5,7.2,19c0,4.5-1.2,8.8-3.5,12.9
			c-2.4,4.1-5.5,7.3-9.4,9.5c2.8,2.2,5,5.2,6.7,8.9c1.7,3.7,2.6,7.4,2.6,11.1c0,8-2.4,14.7-7.2,20.3c-4.8,5.6-11.1,8.9-19,10
			c0.1,0.5,0.2,1.5,0.2,2.9c0,7-3.5,13.5-10.6,19.3c-7.1,5.8-15.6,8.8-25.7,8.8c-5.5,0-10.6-1.2-15.2-3.6c-4.6-2.4-7.6-5.7-9.1-9.9
			c-3.4,1.6-8.6,2.4-15.5,2.4c-9.4,0-17.3-2.5-23.7-7.5s-9.6-11.4-9.6-19.3c0-6.9,2.3-13,6.8-18.2c4.6-5.3,10.9-9.1,19.1-11.4
			c2-0.5,5.8-1.2,11.5-2.1c1.8-0.3,3.2-0.4,4-0.4c6.8,0,14.1,1.9,22.1,5.6c1,0.5,2.3,1.2,3.8,2.1c6.9,4,12,8.6,15.3,13.9l1.9,2.9
			c1.8,3.7,2.7,7.5,2.7,11.1c0,4.9-1.1,9-3.4,12.1c-2.3,3.1-5.3,4.7-9,4.7c-3.2,0-4.7-0.7-4.7-2.2c0-0.4,0.2-0.8,0.5-1.2
			c0.4-0.4,0.7-0.6,1.1-0.6s1,0.4,1.7,1.3c0.7,0.9,1.4,1.3,2.2,1.3c3.2,0,5.8-1.4,7.6-4.1c1.9-2.7,2.8-6.5,2.8-11.2
			c0-4-0.8-7.5-2.4-10.6c-0.8-1.5-1.3-2.5-1.7-3.1c-3.4-5.2-8.5-9.7-15.3-13.5c-0.9-0.5-2-1.1-3.5-1.8c-7.6-3.7-14.8-5.5-21.8-5.5
			c-0.3,0-0.9,0.1-1.8,0.2c-0.9,0.1-1.5,0.2-1.9,0.2C394.1,100.9,390.2,101.6,385.9,103z M384.2,77.9c-7.2-8.1-10.7-17.8-10.7-29.3
			c0-2,0.1-4.5,0.4-7.5c-5.6,2-10.1,5.5-13.5,10.6c-3.4,5.1-5.1,10.6-5.1,16.5c0,7.2,2.6,13.1,7.7,17.5c5.2,4.5,11,6.7,17.6,6.7
			c1,0,2-0.1,3.2-0.4c6-1.4,9.6-2.4,10.9-3l2.1-0.9c-0.9-0.5-1.7-1-2.5-1.4C391.6,85.5,388.3,82.5,384.2,77.9z M470.2,38.2
			c-2.8-10.6-8.4-19-16.9-25.2c-8.5-6.2-18.4-9.4-29.8-9.4c-12.2,0-22.6,3.2-31.2,9.7c-8.6,6.5-14.1,15.3-16.6,26.3
			c1.6-0.5,3.5-0.8,5.8-0.8c4.2,0,8.1,0.9,11.7,2.8c0.8-10.8,6.9-18.5,18.3-23.1c0.4-0.9,1-1.4,1.7-1.4c0.5,0,0.9,0.1,1.2,0.3
			l0.8-0.2c0.3-1,0.9-1.5,1.8-1.5l1.3,0.9l0.8-0.2c0.3-1.5,1-2.3,2.2-2.3c1.1,0,1.9,0.8,2.5,2.5h1.2c0.5-0.6,1-0.9,1.5-0.9
			c0.9,0,1.4,0.4,1.6,1.3l0.8,0.2c0.6-0.2,1.1-0.3,1.5-0.3c0.5,0,1,0.4,1.6,1.2c6,2,11.3,5.2,15.7,9.7c4.4,4.5,7,9.4,7.7,14.8
			c1.8-1.4,4-2.5,6.6-3.4c2.6-0.9,4.9-1.3,6.7-1.3L470.2,38.2z M383.4,141.3c2.4,1.5,4.7,2.3,7.1,2.3c3.4,0,6.3-1.3,8.8-3.8l0.5-0.4
			l0.4,0.6c0,0.4-1,1.3-2.9,2.7c-1.9,1.4-4.1,2.1-6.6,2.1c-2.7,0-5.3-0.8-7.9-2.3l-0.8,0.2c-0.8,0-1.2-0.5-1.2-1.6
			c-0.9-0.8-1.5-1.4-1.9-1.8c-1.1,0-1.6-0.5-1.6-1.5c0-0.4,0.1-0.7,0.4-1c-0.4-0.8-0.6-1.6-0.6-2.3c-0.7,0-1-0.4-1-1.2
			c0-0.5,0.3-0.9,0.8-1.2c0-4.8,1.5-8.4,4.5-10.8c3-2.4,5.3-3.7,7-3.7c0.4,0,0.6,0.2,0.6,0.5l-1,0.5c-6.6,2.6-10,7-10,13.4
			c0.4,0.2,0.6,0.6,0.6,1.2l-0.4,0.8c0,0.8,0.2,1.5,0.6,2.1c1.1,0,1.7,0.5,1.7,1.6c0,0.3-0.1,0.6-0.4,0.8c0.7,0.9,1.3,1.4,2,1.7
			C383,140.1,383.4,140.5,383.4,141.3z M396.8,46.2c0-0.7-0.8-1.6-2.5-3c0,1.1,0.2,2.1,0.5,3c0.3,1,0.7,1.4,1.1,1.4
			C396.5,47.7,396.8,47.2,396.8,46.2z M426.4,107.9c-2.2,2-4.3,3.7-6.3,5c-2,1.3-3.2,1.9-3.6,1.9l-0.4-0.4c3.6-3.4,5.9-6.1,6.9-8.3
			c0.1-0.3,0.3-0.7,0.4-1.1c0.8-2.7,1.2-4.6,1.2-5.8c0-1.9-0.4-4-1.2-6.2c-0.8-2.2-2.8-5.6-6.1-10c-3.3-4.4-5.3-7.9-6.2-10.5
			c-0.9-2.6-1.3-5-1.3-7.3c0-5.7,2-10.7,6-15.1c4-4.4,6.6-6.7,7.8-6.7l1,0.4l-1.4,1.3c-4.6,3.4-6.9,7.2-6.9,11.3
			c0,2.2,0.4,4.5,1.3,6.9c0.9,2.4,3.2,5.9,7,10.4c3.8,4.5,6.2,8.3,7.3,11.4c1.1,3,1.6,6,1.6,8.8c0,4.3-2.1,8.8-6.4,13.3L426.4,107.9
			z M410.4,154c2.6-1.2,4.8-2.7,6.6-4.7c1.8-1.9,2.7-3.7,2.7-5.4c0-2.6-1.1-3.8-3.4-3.8c-1.8,0-3.3,1.1-4.5,3.4
			c-1.2,2.3-1.9,5-1.9,8.1C410,152.4,410.2,153.2,410.4,154z M435.9,37.2c0,1.6,0.4,3.3,1.2,4.9c0.8,1.6,3,3.8,6.5,6.7
			c3.5,2.8,5.8,5.3,6.8,7.3s1.5,4,1.5,6.1c0,4.1-1.5,7.7-4.5,11s-5.3,4.8-6.9,4.8l-0.6-0.4l0.9-0.9c2.5-1.8,3.7-4.3,3.7-7.6
			c0-1.4-0.4-2.9-1.1-4.4c-0.7-1.5-2.7-3.7-6-6.6c-3.3-2.9-5.4-5.4-6.4-7.6s-1.5-4.3-1.5-6.5c0-3.6,1.3-6.8,4-9.7
			c2.7-2.9,4.6-4.4,5.6-4.4l1,0.4C437.4,33.1,435.9,35.5,435.9,37.2z M454.3,44.8c-1.2,1.8-1.8,3.2-1.8,4.2l0.4,1.9
			C453.8,51,454.3,48.9,454.3,44.8z M484.2,87.4c7.7-4.5,11.6-11.5,11.6-21c0-6.5-2.2-12.4-6.5-17.8c-4.3-5.3-10-8.5-17.2-9.5
			c0.7,3.2,1,6.3,1,9.3c0,14.9-6.8,27.5-20.4,37.8c5.7,3,11.8,4.4,18.1,4.4c4.2,0,8.1-0.8,11.6-2.5c-4.1-2.5-8.2-3.8-12.4-3.8
			l-4.1,0.1l-1.5-0.4c0-0.7,1.7-1.1,5.2-1.1C474.7,83,479.5,84.5,484.2,87.4z M467.2,137c-1.3-3.9-3.5-5.8-6.6-5.8
			c-1.8,0-2.7,0.7-2.7,2.2c0,0.9,0.6,1.8,1.9,2.6c1.3,0.8,2.7,1.2,4.2,1.2C465.5,137.2,466.6,137.1,467.2,137z"/>
		<g>
			<g>
				<path class="st1" d="M456.2,114.7v5.2c-1.7,1.5-3.7,3-5.9,4.5c-2.2,1.6-4.7,3-7.3,4.3c-2.6,1.3-5.4,2.4-8.4,3.2
					c-3,0.9-6,1.3-9,1.3c-6.3,0-11.9-1-17-3.1c-5.1-2.1-9.4-5-12.9-8.9c-3.6-3.8-6.3-8.5-8.3-14c-1.9-5.5-2.9-11.7-2.9-18.6
					c0-6.7,1-12.7,3.2-18.3c2.1-5.5,5-10.3,8.7-14.2c3.7-4,8.1-7,13.1-9.2c5-2.2,10.5-3.3,16.3-3.3c2,0,4.3,0.1,6.7,0.4
					c2.5,0.3,4.9,0.7,7.4,1.1c2.5,0.5,4.8,1,7.1,1.6c2.2,0.6,4.2,1.2,5.9,1.7v19.9h-3.3l-4-10.9c-0.2-0.8-0.5-1.4-1-1.7
					c-0.5-0.4-1-0.7-1.6-1.1c-1.3-0.7-2.8-1.5-4.5-2.1c-1.7-0.7-3.4-1.3-5.2-1.8c-1.8-0.5-3.7-0.9-5.5-1.2c-1.9-0.3-3.6-0.4-5.3-0.4
					c-3.7,0-7.1,0.8-10.2,2.3c-3.1,1.6-5.8,3.9-8,7c-2.2,3.1-4,7-5.2,11.7c-1.2,4.7-1.9,10.1-1.9,16.4c0,13,2.8,22.8,8.3,29.3
					c5.5,6.5,13.5,9.8,23.8,9.8c3.4,0,6.4-0.4,9.1-1.1c2.7-0.7,5.1-1.6,7.2-2.7c2.1-1.1,4-2.3,5.6-3.6c1.6-1.3,3-2.5,4.3-3.6H456.2z
					"/>
			</g>
		</g>
	</g>
	<g>
		<path class="st2" d="M9.2,132.8V81.5H0v-8.2h9.2v-2.8c0-8.4,2-16,7.6-20.8c4.5-3.9,10.5-5.5,16-5.5c4.2,0,7.9,0.9,10.2,1.7
			l-1.6,8.4c-1.8-0.7-4.2-1.4-7.6-1.4C23.6,52.8,21,60.9,21,70v3.2h15.9v8.2H21v51.3H9.2z"/>
		<path class="st2" d="M84.1,132.8l-1-7.5h-0.4c-3.7,4.7-10.7,8.9-20.1,8.9c-13.3,0-20.1-8.5-20.1-17.1c0-14.4,14.1-22.3,39.5-22.2
			v-1.2c0-4.9-1.5-13.8-14.9-13.8c-6.1,0-12.5,1.7-17.1,4.4l-2.7-7.1c5.4-3.2,13.3-5.3,21.6-5.3c20.1,0,25,12.4,25,24.4v22.3
			c0,5.2,0.3,10.2,1.1,14.3H84.1z M82.3,102.4c-13-0.2-27.8,1.8-27.8,13.4c0,7,5.2,10.3,11.3,10.3c8.6,0,14-4.9,15.9-10
			c0.4-1.1,0.7-2.3,0.7-3.4V102.4z"/>
		<path class="st2" d="M111.5,121.7c3.5,2.1,9.8,4.3,15.8,4.3c8.7,0,12.8-3.9,12.8-8.9c0-5.2-3.4-8-12.2-11
			c-11.8-3.8-17.4-9.7-17.4-16.9c0-9.6,8.6-17.5,22.7-17.5c6.7,0,12.5,1.7,16.2,3.7l-3,7.9c-2.6-1.5-7.3-3.4-13.4-3.4
			c-7.1,0-11,3.7-11,8.1c0,4.9,3.9,7.1,12.5,10.1c11.4,3.9,17.2,9.1,17.2,18c0,10.5-9,17.9-24.6,17.9c-7.2,0-13.9-1.6-18.5-4.1
			L111.5,121.7z"/>
		<path class="st2" d="M181.3,56.1v17.1h17.1v8.2h-17.1v32.1c0,7.4,2.3,11.6,9,11.6c3.1,0,5.4-0.4,6.9-0.7l0.5,8.1
			c-2.3,0.9-6,1.5-10.6,1.5c-5.6,0-10.1-1.6-12.9-4.6c-3.4-3.2-4.6-8.5-4.6-15.5V81.5h-10.2v-8.2h10.2V58.9L181.3,56.1z"/>
		<path class="st2" d="M225.2,56.5c0.1,3.7-2.9,6.6-7.6,6.6c-4.2,0-7.2-3-7.2-6.6c0-3.8,3.1-6.8,7.5-6.8
			C222.3,49.7,225.2,52.6,225.2,56.5z M211.9,132.8V73.2h12v59.6H211.9z"/>
		<path class="st2" d="M243.6,89.3c0-6.2-0.1-11.2-0.5-16.1h10.6l0.7,9.8h0.3c3.3-5.7,10.9-11.2,21.7-11.2c9.1,0,23.2,4.9,23.2,25.4
			v35.6h-12V98.4c0-9.6-3.9-17.6-15.2-17.6c-7.9,0-14,5-16,11.1c-0.5,1.4-0.8,3.2-0.8,5v35.8h-12V89.3z"/>
		<path class="st2" d="M375.7,73.2c-0.3,4.3-0.5,9.1-0.5,16.4v34.6c0,13.7-3,22-9.4,27.2c-6.4,5.4-15.6,7.1-23.9,7.1
			c-7.9,0-16.6-1.7-21.9-4.9l3-8.2c4.3,2.5,11.1,4.7,19.3,4.7c12.2,0,21.2-5.8,21.2-20.8v-6.6h-0.3c-3.7,5.5-10.7,10-20.9,10
			c-16.3,0-28-12.6-28-29.1c0-20.2,14.5-31.6,29.6-31.6c11.4,0,17.7,5.4,20.5,10.3h0.3l0.5-9H375.7z M363.3,96.7
			c0-1.8-0.1-3.4-0.7-4.9c-2.2-6.3-8-11.5-16.7-11.5c-11.4,0-19.6,8.7-19.6,22.5c0,11.7,6.5,21.4,19.4,21.4c7.3,0,14-4.2,16.6-11.1
			c0.7-1.8,1-3.9,1-5.8V96.7z"/>
	</g>
	<g>
		<path class="st1" d="M464.6,91.4c0-7-0.1-13.1-0.5-18.6h9.5l0.4,11.7h0.5c2.7-8,9.2-13.1,16.5-13.1c1.2,0,2.1,0.1,3.1,0.4V82
			c-1.1-0.2-2.2-0.4-3.7-0.4c-7.6,0-13.1,5.8-14.5,13.9c-0.2,1.5-0.5,3.2-0.5,5v31.8h-10.7V91.4z"/>
		<path class="st1" d="M554.8,116.1c0,6.2,0.1,11.6,0.5,16.3h-9.6l-0.6-9.7h-0.2c-2.8,4.8-9.1,11.1-19.7,11.1
			c-9.4,0-20.6-5.2-20.6-26.1V72.8h10.8v33c0,11.3,3.4,19,13.3,19c7.3,0,12.3-5,14.3-9.8c0.6-1.6,1-3.6,1-5.5V72.8h10.8V116.1z"/>
		<path class="st1" d="M571.3,121.3c3.2,2.1,8.9,4.3,14.3,4.3c7.9,0,11.6-3.9,11.6-8.9c0-5.2-3.1-8-11.1-11
			c-10.7-3.8-15.8-9.7-15.8-16.9c0-9.6,7.8-17.5,20.6-17.5c6,0,11.3,1.7,14.7,3.7l-2.7,7.9c-2.3-1.5-6.6-3.4-12.2-3.4
			c-6.4,0-10,3.7-10,8.1c0,4.9,3.6,7.1,11.3,10.1c10.3,3.9,15.6,9.1,15.6,18c0,10.5-8.1,17.9-22.3,17.9c-6.5,0-12.6-1.6-16.7-4.1
			L571.3,121.3z"/>
		<path class="st1" d="M654.5,132.4l-0.9-7.5h-0.4c-3.3,4.7-9.7,8.9-18.2,8.9c-12.1,0-18.2-8.5-18.2-17.1
			c0-14.4,12.8-22.3,35.8-22.2v-1.2c0-4.9-1.4-13.8-13.5-13.8c-5.5,0-11.3,1.7-15.5,4.4l-2.5-7.1c4.9-3.2,12.1-5.3,19.6-5.3
			c18.2,0,22.7,12.4,22.7,24.4v22.3c0,5.2,0.2,10.2,1,14.3H654.5z M652.9,102c-11.8-0.2-25.2,1.8-25.2,13.4c0,7,4.7,10.3,10.2,10.3
			c7.8,0,12.7-4.9,14.4-10c0.4-1.1,0.6-2.3,0.6-3.4V102z"/>
		<path class="st1" d="M732.3,45v72c0,5.3,0.1,11.3,0.5,15.4h-9.7l-0.5-10.3h-0.2c-3.3,6.6-10.6,11.7-20.3,11.7
			c-14.4,0-25.5-12.2-25.5-30.3c-0.1-19.8,12.2-32,26.7-32c9.1,0,15.3,4.3,18,9.1h0.2V45H732.3z M721.5,97.1c0-1.4-0.1-3.2-0.5-4.6
			c-1.6-6.9-7.5-12.6-15.6-12.6c-11.2,0-17.9,9.8-17.9,23c0,12.1,5.9,22,17.6,22c7.3,0,13.9-4.8,15.9-12.9c0.4-1.5,0.5-3,0.5-4.7
			V97.1z"/>
		<path class="st1" d="M756.3,104.6c0.2,14.7,9.6,20.7,20.4,20.7c7.8,0,12.4-1.4,16.5-3.1l1.8,7.8c-3.8,1.7-10.3,3.7-19.8,3.7
			c-18.3,0-29.3-12.1-29.3-30c0-18,10.6-32.1,27.9-32.1c19.5,0,24.6,17.1,24.6,28.1c0,2.2-0.2,3.9-0.4,5H756.3z M788.1,96.8
			c0.1-6.9-2.8-17.6-15-17.6c-11,0-15.8,10.1-16.6,17.6H788.1z"/>
	</g>
</g>
</svg>
