<?xml version="1.0" encoding="utf-8"?>
<!-- Generator: Adobe Illustrator 21.0.0, SVG Export Plug-In . SVG Version: 6.00 Build 0)  -->
<svg version="1.1" xmlns="http://www.w3.org/2000/svg" xmlns:xlink="http://www.w3.org/1999/xlink" x="0px" y="0px"
	 viewBox="0 0 799 169" style="enable-background:new 0 0 799 169;" xml:space="preserve">
<style type="text/css">
	.st0{fill:#333333;}
	.st1{fill:#A10000;}
</style>
<g id="Layer_1">
</g>
<g id="Layer_2">
	<g id="XMLID_1_">
		<g>
			<path class="st0" d="M798.5,99.5c0,2.2-0.3,3.9-0.4,5.1h-41.9c0.2,14.7,9.6,20.7,20.4,20.7c7.8,0,12.4-1.3,16.5-3.1l1.9,7.7
				c-3.8,1.7-10.3,3.7-19.8,3.7c-18.4,0-29.3-12.1-29.3-30c0-18,10.6-32.1,27.9-32.1C793.4,71.4,798.5,88.6,798.5,99.5z M788.1,96.8
				c0.1-6.9-2.8-17.6-15-17.6c-11,0-15.8,10.1-16.6,17.6H788.1z"/>
			<path class="st0" d="M732.8,132.4h-9.7l-0.5-10.3h-0.2c-3.3,6.6-10.6,11.7-20.3,11.7c-14.4,0-25.5-12.2-25.5-30.3
				c-0.1-19.8,12.2-32,26.7-32c9.1,0,15.3,4.3,18,9.1h0.3V45h10.8v72C732.3,122.3,732.4,128.3,732.8,132.4z M721.5,107.4V97.1
				c0-1.3-0.1-3.2-0.5-4.6c-1.6-6.9-7.5-12.6-15.6-12.6c-11.2,0-17.9,9.9-17.9,23c0,12.1,5.9,22,17.6,22c7.3,0,13.9-4.8,15.9-12.9
				C721.3,110.6,721.5,109.1,721.5,107.4z"/>
			<path class="st0" d="M664.3,132.4h-9.9l-0.9-7.5h-0.4c-3.3,4.7-9.7,8.9-18.2,8.9c-12.1,0-18.2-8.5-18.2-17.1
				c0-14.4,12.8-22.3,35.8-22.2v-1.2c0-4.9-1.4-13.8-13.5-13.8c-5.5,0-11.3,1.7-15.5,4.4l-2.5-7.1c4.9-3.2,12.1-5.3,19.6-5.3
				c18.2,0,22.6,12.4,22.6,24.4v22.3C663.3,123.3,663.6,128.3,664.3,132.4z M652.9,112.3V102c-11.8-0.3-25.2,1.8-25.2,13.4
				c0,7,4.7,10.3,10.2,10.3c7.8,0,12.7-4.9,14.4-10C652.6,114.7,652.9,113.4,652.9,112.3z"/>
			<path class="st0" d="M605.5,75.1l-2.7,7.9c-2.3-1.5-6.7-3.4-12.2-3.4c-6.4,0-10,3.7-10,8.1c0,4.9,3.6,7.1,11.3,10.1
				c10.3,3.9,15.6,9.1,15.6,18c0,10.5-8.1,17.9-22.3,17.9c-6.5,0-12.6-1.6-16.8-4.1l2.7-8.2c3.2,2.1,8.9,4.3,14.3,4.3
				c7.9,0,11.6-3.9,11.6-8.9c0-5.2-3.1-8-11.1-11c-10.7-3.8-15.8-9.7-15.8-16.9c0-9.6,7.8-17.5,20.6-17.5
				C596.9,71.4,602.2,73.2,605.5,75.1z"/>
			<path class="st0" d="M555.3,132.4h-9.6l-0.6-9.7h-0.3c-2.8,4.8-9.1,11.1-19.7,11.1c-9.4,0-20.6-5.2-20.6-26.1V72.8h10.8v33
				c0,11.3,3.5,19,13.3,19c7.3,0,12.3-5.1,14.3-9.8c0.6-1.6,1-3.6,1-5.5V72.8h10.8v43.3C554.8,122.3,554.9,127.7,555.3,132.4z"/>
			<path class="st0" d="M494.1,71.8V82c-1.1-0.3-2.2-0.4-3.7-0.4c-7.6,0-13,5.8-14.5,13.9c-0.2,1.5-0.5,3.2-0.5,5v31.8h-10.7v-41
				c0-7-0.1-13.1-0.5-18.6h9.5l0.4,11.7h0.5c2.7-8,9.2-13.1,16.5-13.1C492.2,71.4,493.1,71.6,494.1,71.8z"/>
			<path class="st0" d="M421.2,125L421.2,125c1.1,0.2,2.3,0.4,3.5,0.5c1.4,0.1,2.8,0.2,4.3,0.2c3.4,0,6.4-0.4,9.1-1.1
				c2.7-0.7,5.1-1.7,7.2-2.8c2.1-1.1,4-2.3,5.6-3.6c1.6-1.3,3-2.5,4.3-3.6h1.1v5.2c-1.7,1.4-3.7,3-5.9,4.5c-2.3,1.6-4.7,3-7.3,4.3
				c-2.6,1.3-5.4,2.4-8.4,3.3c-2.9,0.9-6,1.3-9,1.3c-6.3,0-11.9-1-17-3.1c-5.1-2.1-9.4-5-12.9-8.9c-3.6-3.8-6.3-8.5-8.3-14
				c-1.9-5.5-2.9-11.7-2.9-18.6c0-6.7,1.1-12.8,3.1-18.3c2.1-5.5,5-10.3,8.7-14.2c3.7-4,8.1-7,13.1-9.2c5-2.2,10.5-3.3,16.3-3.3
				c2,0,4.3,0.2,6.7,0.4c2.4,0.3,4.9,0.7,7.4,1.1c2.5,0.5,4.8,1,7.1,1.6c2.3,0.6,4.2,1.2,5.9,1.8v19.9h-3.3l-4-10.9
				c-0.2-0.8-0.5-1.4-1-1.7c-0.5-0.4-1-0.7-1.6-1.1c-1.3-0.8-2.8-1.5-4.5-2.1c-0.8-0.3-1.7-0.7-2.6-1c-0.9-0.3-1.8-0.6-2.7-0.8
				c-1.8-0.5-3.7-0.9-5.5-1.2s-3.6-0.4-5.3-0.4c-3.7,0-7.1,0.8-10.2,2.3c-3.1,1.6-5.8,3.9-8.1,7c-2.3,3.1-4,7-5.2,11.7
				s-1.9,10.1-1.9,16.4c0,13,2.8,22.8,8.3,29.3C409.2,120.7,414.5,123.7,421.2,125z"/>
			<path class="st1" d="M447,86.1c0,4.1-1.5,7.7-4.5,11c-3,3.2-5.3,4.8-6.9,4.8l-0.6-0.4l0.9-0.9c2.5-1.8,3.7-4.3,3.7-7.6
				c0-1.4-0.4-2.9-1.1-4.4c-0.7-1.5-2.7-3.7-6-6.6c-3.3-2.9-5.4-5.4-6.4-7.6c-1-2.2-1.5-4.4-1.5-6.5c0-2.4,0.6-4.7,1.9-6.9
				c0.6-1,1.3-1.9,2.1-2.8c2.7-2.9,4.6-4.4,5.6-4.4l1,0.4c-3,3-4.4,5.3-4.4,7c0,1.7,0.4,3.3,1.2,4.9c0.8,1.6,3,3.8,6.5,6.7
				c3.5,2.8,5.8,5.3,6.8,7.3C446.5,82,447,84,447,86.1z"/>
			<path class="st1" d="M432.4,102.1c0.8,2.6,1.2,5.2,1.2,7.7c0,4.3-2.1,8.8-6.4,13.3l-0.8,0.8c-0.6,0.5-1.2,1.1-1.7,1.5l0,0.1
				c-1.2-0.1-2.4-0.3-3.5-0.5c0.8-1.2,1.6-2.2,1.9-2.9c0.1-0.3,0.3-0.7,0.4-1.1c0.8-2.7,1.2-4.6,1.2-5.8c0-1.9-0.4-4-1.2-6.2
				c-0.8-2.2-2.8-5.6-6.1-10c-3.3-4.4-5.3-7.9-6.2-10.5c-0.9-2.6-1.3-5-1.3-7.3c0-5.7,2-10.7,6-15.2c4-4.4,6.6-6.7,7.8-6.7l1,0.4
				l-1.4,1.3c-4.6,3.4-6.9,7.2-6.9,11.3c0,2.2,0.4,4.5,1.3,6.9c0.9,2.4,3.2,5.9,7,10.4c3.8,4.5,6.2,8.3,7.3,11.3
				C432.1,101.4,432.3,101.8,432.4,102.1z"/>
			<path class="st0" d="M365.2,73.2h10.5c-0.3,4.3-0.6,9.1-0.6,16.4v34.6c0,13.7-3,22-9.4,27.2c-6.4,5.4-15.6,7.1-23.9,7.1
				c-7.9,0-16.6-1.7-21.9-4.9l3-8.3c4.3,2.5,11.1,4.7,19.3,4.7c12.2,0,21.2-5.8,21.2-20.8v-6.7h-0.3c-3.7,5.5-10.7,10-20.9,10
				c-16.3,0-28-12.6-28-29.1c0-20.2,14.5-31.6,29.6-31.6c11.4,0,17.7,5.4,20.5,10.3h0.3L365.2,73.2z M363.3,107.4V96.7
				c0-1.8-0.1-3.5-0.7-4.9c-2.2-6.3-8-11.5-16.7-11.5c-11.4,0-19.6,8.7-19.6,22.5c0,11.7,6.5,21.4,19.4,21.4c7.3,0,14-4.2,16.6-11.1
				C363,111.4,363.3,109.3,363.3,107.4z"/>
			<path class="st0" d="M299.6,97.2v35.6h-12V98.4c0-9.6-3.9-17.6-15.2-17.6c-7.9,0-14,5-16,11.1c-0.5,1.3-0.8,3.2-0.8,5v35.8h-12
				V89.3c0-6.2-0.1-11.2-0.5-16.1h10.6l0.7,9.9h0.3c3.3-5.7,10.9-11.2,21.7-11.2C285.5,71.8,299.6,76.8,299.6,97.2z"/>
			<path class="st0" d="M225.2,56.5c0.1,3.7-2.8,6.7-7.6,6.7c-4.2,0-7.2-3-7.2-6.7c0-3.8,3.1-6.8,7.5-6.8
				C222.3,49.7,225.2,52.6,225.2,56.5z"/>
			<rect x="211.9" y="73.2" class="st0" width="12" height="59.6"/>
			<path class="st0" d="M198.4,73.2v8.3h-17.1v32.1c0,7.4,2.3,11.6,9,11.6c3.1,0,5.4-0.4,6.9-0.7l0.6,8.1c-2.3,0.9-6,1.5-10.6,1.5
				c-5.6,0-10.1-1.6-12.9-4.6c-3.4-3.2-4.6-8.5-4.6-15.5V81.4h-10.2v-8.3h10.2V58.9l11.7-2.8v17.1H198.4z"/>
			<path class="st0" d="M149.3,75.5l-3,7.9c-2.6-1.5-7.3-3.4-13.4-3.4c-7.1,0-11,3.7-11,8.1c0,4.9,3.9,7.1,12.5,10.1
				c11.4,3.9,17.3,9.1,17.3,18c0,10.5-9,17.9-24.6,17.9c-7.2,0-13.8-1.6-18.5-4.1l3-8.3c3.5,2.1,9.8,4.3,15.8,4.3
				c8.7,0,12.8-3.9,12.8-8.9c0-5.2-3.4-8-12.2-11c-11.8-3.8-17.4-9.7-17.4-16.9c0-9.6,8.6-17.5,22.7-17.5
				C139.7,71.8,145.6,73.6,149.3,75.5z"/>
			<path class="st0" d="M94.9,132.8H84.1l-1-7.5h-0.4c-3.7,4.7-10.7,8.9-20.1,8.9c-13.3,0-20.1-8.5-20.1-17.1
				c0-14.4,14.1-22.3,39.5-22.2v-1.2c0-4.9-1.5-13.8-14.9-13.8c-6.1,0-12.5,1.7-17.1,4.4l-2.7-7.1c5.4-3.2,13.3-5.3,21.6-5.3
				c20.1,0,25,12.4,25,24.4v22.3C93.8,123.7,94.1,128.7,94.9,132.8z M82.3,112.7v-10.3c-13-0.2-27.9,1.9-27.9,13.4
				c0,7,5.2,10.3,11.3,10.3c8.5,0,14-4.9,15.9-10C82,115.1,82.3,113.8,82.3,112.7z"/>
			<path class="st0" d="M43,45.8l-1.6,8.4c-1.8-0.7-4.2-1.4-7.6-1.4C23.6,52.8,21,60.9,21,70v3.2h15.9v8.3H21v51.3H9.2V81.4H0v-8.3
				h9.2v-2.8c0-8.4,2-16,7.6-20.8c4.5-3.9,10.5-5.5,16-5.5C37.1,44,40.7,44.9,43,45.8z"/>
		</g>
		<g>
		</g>
	</g>
</g>
</svg>
